<?xml version="1.0" encoding="UTF-8"?>
<svg id="Calque_2" xmlns="http://www.w3.org/2000/svg" xmlns:xlink="http://www.w3.org/1999/xlink" viewBox="0 0 264.34 152.79">
  <defs>
    <style>
      .cls-1 {
        stroke: url(#Dégradé_sans_nom_104-2);
      }

      .cls-1, .cls-2 {
        fill: none;
        stroke-miterlimit: 10;
        stroke-width: 8px;
      }

      .cls-2 {
        stroke: url(#Dégradé_sans_nom_104);
      }
    </style>
    <linearGradient id="Dégradé_sans_nom_104" data-name="Dégradé sans nom 104" x1="132.17" y1="0" x2="132.17" y2="152.79" gradientUnits="userSpaceOnUse">
      <stop offset=".32" stop-color="#e41f13"/>
      <stop offset="1" stop-color="#098036"/>
    </linearGradient>
    <linearGradient id="Dégradé_sans_nom_104-2" data-name="Dégradé sans nom 104" x1="145.94" y1="78.13" x2="145.94" y2="151.38" xlink:href="#Dégradé_sans_nom_104"/>
  </defs>
  <g id="Calque_1-2" data-name="Calque_1">
    <path class="cls-2" d="M2.03,142.27c32.8-19.26,62.03-44.6,85.75-74.34l3.99,6.15c24-19.04,45.4-41.36,63.43-66.14,7.09,15.93,14.19,31.85,21.28,47.78,3.05,6.86,6.19,13.84,11.22,19.41,5.4,5.98,12.62,9.93,19.25,14.5,22.48,15.5,38.54,38.44,54.1,60.88"/>
    <path class="cls-1" d="M85.93,138.43c10.29-4.82,20.63-9.84,29.36-17.11s15.82-17.1,17.62-28.31c1.84,4.59,3.69,9.18,5.53,13.77,4.17-2.23,8.34-4.45,12.51-6.68,5.23,9.84,10.47,19.68,15.7,29.52,1.41,2.66,2.88,5.38,5.16,7.33,2.8,2.39,6.5,3.36,10.06,4.27,8.26,2.1,16.52,4.2,24.78,6.29"/>
  </g>
</svg>