<?xml version="1.0" encoding="UTF-8"?>
<svg id="Calque_2" xmlns="http://www.w3.org/2000/svg" xmlns:xlink="http://www.w3.org/1999/xlink" viewBox="0 0 223.12 192.14">
  <defs>
    <style>
      .cls-1 {
        stroke: url(#Dégradé_sans_nom_108-2);
      }

      .cls-1, .cls-2 {
        fill: none;
        stroke-miterlimit: 10;
        stroke-width: 8px;
      }

      .cls-2 {
        stroke: url(#Dégradé_sans_nom_108);
      }
    </style>
    <linearGradient id="Dégradé_sans_nom_108" data-name="Dégradé sans nom 108" x1="111.56" y1="179.03" x2="111.56" y2="0" gradientUnits="userSpaceOnUse">
      <stop offset=".32" stop-color="#ffed00"/>
      <stop offset="1" stop-color="#098036"/>
    </linearGradient>
    <linearGradient id="Dégradé_sans_nom_108-2" data-name="Dégradé sans nom 108" x1="97.8" y1="192.14" x2="97.8" y2="91.18" xlink:href="#Dégradé_sans_nom_108"/>
  </defs>
  <g id="Calque_1-2" data-name="Calque_1">
    <path class="cls-2" d="M2.39,123.59c15.14-11.3,27.06-26.87,34.01-44.44,2.95-7.44,5.33-15.68,11.56-20.7,4.25-3.41,9.7-4.82,14.84-6.65,18.75-6.67,35-20.15,45.01-37.35.27,18.09,2.36,36.16,6.21,53.83,1.53,6.99,4.29,15,11.11,17.18,8.04,2.56,16.7-4.76,24.81-2.42,4.73,1.36,7.92,5.65,10.76,9.68,19.71,28,39.43,56,59.14,84"/>
    <path class="cls-1" d="M51.82,144.62c9.95-14.76,19.91-29.52,29.86-44.28,2.79,9.01,5.59,18.02,8.38,27.03,1.13-2.99,5.27-3.81,8.17-2.47s4.82,4.12,6.6,6.78c12.98,19.41,25.97,38.82,38.95,58.24"/>
  </g>
</svg>